<!DOCTYPE svg PUBLIC "-//W3C//DTD SVG 1.1//EN" "http://www.w3.org/Graphics/SVG/1.1/DTD/svg11.dtd">
<!-- Uploaded to: SVG Repo, www.svgrepo.com, Transformed by: SVG Repo Mixer Tools -->
<svg fill="#000000" height="64px" width="64px" version="1.1" id="Capa_1" xmlns="http://www.w3.org/2000/svg" xmlns:xlink="http://www.w3.org/1999/xlink" viewBox="-39.5 -39.5 474.00 474.00" xml:space="preserve" stroke="#000000" stroke-width="3.16">
<g id="SVGRepo_bgCarrier" stroke-width="0"/>
<g id="SVGRepo_tracerCarrier" stroke-linecap="round" stroke-linejoin="round" stroke="#CCCCCC" stroke-width="37.129999999999995"> <g> <path d="M173.871,190.724c9.87-8.631,15.11-20.474,15.11-34.756c0-15.011-5.814-27.542-16.815-36.237 c-10.118-8.001-24.352-12.23-41.159-12.23c-16.866,0-31.148,4.223-41.301,12.211c-11.057,8.696-16.9,21.234-16.9,36.256 c0,14.282,5.241,26.125,15.11,34.756c-14.43,9.473-22.353,24.004-22.353,41.971c0,16.931,6.483,31.061,18.747,40.856 c11.425,9.126,27.571,13.949,46.697,13.949c19.066,0,35.164-4.829,46.552-13.965c12.211-9.796,18.665-23.919,18.665-40.84 C196.224,214.727,188.302,200.196,173.871,190.724z M131.007,133.82c9.518,0,31.654,2.203,31.654,22.601 c0,20.807-22.136,23.053-31.654,23.053c-9.585,0-31.879-2.246-31.879-23.053C99.128,136.023,121.422,133.82,131.007,133.82z M160.695,253.056c-6.731,5.313-16.997,8.124-29.688,8.124c-12.836,0-23.187-2.839-29.935-8.21 c-6.096-4.852-9.186-11.827-9.186-20.729c0-23.87,27.201-26.448,38.895-26.448c11.764,0,39.122,2.6,39.122,26.674 C169.903,241.305,166.804,248.231,160.695,253.056z"/> <path d="M265.417,107.5c-19.192,0-63.83,8.758-63.83,89.887c0,27.392,5.154,49.078,15.317,64.454 c11.097,16.787,27.872,25.659,48.513,25.659c20.691,0,37.512-8.866,48.64-25.642c10.205-15.38,15.38-37.071,15.38-64.471 C329.436,116.258,284.665,107.5,265.417,107.5z M292.35,246.854c-6.419,9.774-14.979,14.326-26.934,14.326 c-11.928,0-20.451-4.545-26.823-14.303c-7.212-11.044-10.869-27.694-10.869-49.489c0-29,6.539-63.567,37.692-63.567 c11.978,0,20.54,4.523,26.947,14.232c7.256,10.999,10.935,27.597,10.935,49.335C303.298,219.15,299.615,235.792,292.35,246.854z"/> <path d="M313.001,0H81.999C36.785,0,0,36.784,0,81.998v230.993C0,358.211,36.785,395,81.999,395h231.002 C358.216,395,395,358.211,395,312.991V81.998C395,36.784,358.216,0,313.001,0z M380,312.991C380,349.94,349.945,380,313.001,380 H81.999C45.056,380,15,349.94,15,312.991V81.998C15,45.055,45.056,15,81.999,15h231.002C349.945,15,380,45.055,380,81.998V312.991z "/> </g> </g>
<g id="SVGRepo_iconCarrier"> <g> <path d="M173.871,190.724c9.87-8.631,15.11-20.474,15.11-34.756c0-15.011-5.814-27.542-16.815-36.237 c-10.118-8.001-24.352-12.23-41.159-12.23c-16.866,0-31.148,4.223-41.301,12.211c-11.057,8.696-16.9,21.234-16.9,36.256 c0,14.282,5.241,26.125,15.11,34.756c-14.43,9.473-22.353,24.004-22.353,41.971c0,16.931,6.483,31.061,18.747,40.856 c11.425,9.126,27.571,13.949,46.697,13.949c19.066,0,35.164-4.829,46.552-13.965c12.211-9.796,18.665-23.919,18.665-40.84 C196.224,214.727,188.302,200.196,173.871,190.724z M131.007,133.82c9.518,0,31.654,2.203,31.654,22.601 c0,20.807-22.136,23.053-31.654,23.053c-9.585,0-31.879-2.246-31.879-23.053C99.128,136.023,121.422,133.82,131.007,133.82z M160.695,253.056c-6.731,5.313-16.997,8.124-29.688,8.124c-12.836,0-23.187-2.839-29.935-8.21 c-6.096-4.852-9.186-11.827-9.186-20.729c0-23.87,27.201-26.448,38.895-26.448c11.764,0,39.122,2.6,39.122,26.674 C169.903,241.305,166.804,248.231,160.695,253.056z"/> <path d="M265.417,107.5c-19.192,0-63.83,8.758-63.83,89.887c0,27.392,5.154,49.078,15.317,64.454 c11.097,16.787,27.872,25.659,48.513,25.659c20.691,0,37.512-8.866,48.64-25.642c10.205-15.38,15.38-37.071,15.38-64.471 C329.436,116.258,284.665,107.5,265.417,107.5z M292.35,246.854c-6.419,9.774-14.979,14.326-26.934,14.326 c-11.928,0-20.451-4.545-26.823-14.303c-7.212-11.044-10.869-27.694-10.869-49.489c0-29,6.539-63.567,37.692-63.567 c11.978,0,20.54,4.523,26.947,14.232c7.256,10.999,10.935,27.597,10.935,49.335C303.298,219.15,299.615,235.792,292.35,246.854z"/> <path d="M313.001,0H81.999C36.785,0,0,36.784,0,81.998v230.993C0,358.211,36.785,395,81.999,395h231.002 C358.216,395,395,358.211,395,312.991V81.998C395,36.784,358.216,0,313.001,0z M380,312.991C380,349.94,349.945,380,313.001,380 H81.999C45.056,380,15,349.94,15,312.991V81.998C15,45.055,45.056,15,81.999,15h231.002C349.945,15,380,45.055,380,81.998V312.991z "/> </g> </g>
</svg>